<svg width="1440" height="900" viewBox="0 0 1440 900" fill="none" xmlns="http://www.w3.org/2000/svg">
<g filter="url(#filter0_d_1_2)">
<path d="M720 0H1416C1429.25 0 1440 10.7452 1440 24V876C1440 889.255 1429.25 900 1416 900H720V0Z" fill="black" fill-opacity="0.5"/>
<path d="M440.25 544V366H472.5V544H440.25ZM581.051 414.5C611.217 414.5 626.301 431.833 626.301 466.5V544H595.051V468C595.051 458 593.134 450.75 589.301 446.25C585.467 441.583 579.551 439.25 571.551 439.25C562.051 439.25 554.384 442.333 548.551 448.5C542.717 454.5 539.801 462.5 539.801 472.5V544H508.801V453.5C508.801 440.167 508.134 428.25 506.801 417.75H536.051L538.301 438.5C542.634 430.833 548.467 424.917 555.801 420.75C563.301 416.583 571.717 414.5 581.051 414.5ZM780.186 360V544H749.436V523.75C745.602 530.75 740.102 536.25 732.936 540.25C725.769 544.083 717.602 546 708.436 546C697.602 546 687.936 543.25 679.436 537.75C670.936 532.25 664.269 524.5 659.436 514.5C654.769 504.333 652.436 492.75 652.436 479.75C652.436 466.75 654.769 455.333 659.436 445.5C664.102 435.667 670.686 428.083 679.186 422.75C687.686 417.25 697.436 414.5 708.436 414.5C717.436 414.5 725.436 416.417 732.436 420.25C739.602 423.917 745.102 429.167 748.936 436V360H780.186ZM716.686 521.5C727.019 521.5 735.019 517.917 740.686 510.75C746.519 503.583 749.436 493.417 749.436 480.25C749.436 467.083 746.602 456.917 740.936 449.75C735.269 442.583 727.269 439 716.936 439C706.436 439 698.269 442.583 692.436 449.75C686.769 456.75 683.936 466.75 683.936 479.75C683.936 492.917 686.769 503.167 692.436 510.5C698.269 517.833 706.352 521.5 716.686 521.5ZM814.221 544V417.75H845.221V544H814.221ZM812.221 360.5H846.971V391.25H812.221V360.5ZM1000.16 417.75V544H969.406V523.75C965.573 530.75 960.073 536.25 952.906 540.25C945.74 544.083 937.573 546 928.406 546C917.406 546 907.656 543.333 899.156 538C890.656 532.667 884.073 525.083 879.406 515.25C874.74 505.417 872.406 494 872.406 481C872.406 468 874.74 456.5 879.406 446.5C884.24 436.333 890.906 428.5 899.406 423C907.906 417.333 917.573 414.5 928.406 414.5C937.573 414.5 945.74 416.5 952.906 420.5C960.073 424.333 965.573 429.75 969.406 436.75V417.75H1000.16ZM936.906 521.5C947.24 521.5 955.24 517.917 960.906 510.75C966.573 503.583 969.406 493.5 969.406 480.5C969.406 467.167 966.573 456.917 960.906 449.75C955.24 442.583 947.156 439 936.656 439C926.323 439 918.24 442.75 912.406 450.25C906.74 457.583 903.906 467.833 903.906 481C903.906 494 906.74 504 912.406 511C918.24 518 926.406 521.5 936.906 521.5Z" fill="white"/>
<path d="M572.772 594.368H582.204C586.404 594.368 589.656 595.484 591.96 597.716C594.288 599.948 595.452 603.092 595.452 607.148C595.452 611.228 594.288 614.396 591.96 616.652C589.656 618.884 586.404 620 582.204 620H572.772V594.368ZM581.916 616.22C587.82 616.22 590.772 613.196 590.772 607.148C590.772 601.148 587.82 598.148 581.916 598.148H577.416V616.22H581.916ZM600.194 620V594.368H617.33V598.04H604.73V605.132H616.574V608.804H604.73V616.328H617.33V620H600.194ZM621.604 620V594.368H626.248V616.184H638.236V620H621.604ZM659.461 594.368H664.069V620H659.461V608.876H646.321V620H641.749V594.368H646.321V605.096H659.461V594.368ZM669.627 620V594.368H674.271V620H669.627ZM689.702 620V594.368H694.346V620H689.702ZM717.141 594.368H721.497V620H718.041L704.217 602.036V620H699.897V594.368H703.353L717.141 612.296V594.368ZM727.073 594.368H736.505C740.705 594.368 743.957 595.484 746.261 597.716C748.589 599.948 749.753 603.092 749.753 607.148C749.753 611.228 748.589 614.396 746.261 616.652C743.957 618.884 740.705 620 736.505 620H727.073V594.368ZM736.217 616.22C742.121 616.22 745.073 613.196 745.073 607.148C745.073 601.148 742.121 598.148 736.217 598.148H731.717V616.22H736.217ZM754.495 620V594.368H759.139V620H754.495ZM784.274 620L781.718 613.988H769.19L766.598 620H761.918L773.51 594.368H777.29L788.918 620H784.274ZM770.738 610.388H780.17L775.454 599.408L770.738 610.388ZM822.953 606.14V618.452C821.777 619.028 820.361 619.484 818.705 619.82C817.049 620.156 815.357 620.324 813.629 620.324C810.989 620.324 808.697 619.796 806.753 618.74C804.809 617.684 803.321 616.172 802.289 614.204C801.257 612.236 800.741 609.884 800.741 607.148C800.741 604.46 801.257 602.132 802.289 600.164C803.321 598.196 804.785 596.684 806.681 595.628C808.601 594.572 810.845 594.044 813.413 594.044C815.213 594.044 816.893 594.308 818.453 594.836C820.037 595.364 821.357 596.108 822.413 597.068L820.829 600.452C819.629 599.516 818.453 598.844 817.301 598.436C816.149 598.028 814.889 597.824 813.521 597.824C810.881 597.824 808.877 598.616 807.509 600.2C806.165 601.784 805.493 604.1 805.493 607.148C805.493 610.292 806.189 612.668 807.581 614.276C808.973 615.86 811.049 616.652 813.809 616.652C815.489 616.652 817.145 616.424 818.777 615.968V609.488H813.233V606.14H822.953ZM847.766 620L845.21 613.988H832.682L830.09 620H825.41L837.002 594.368H840.782L852.41 620H847.766ZM834.23 610.388H843.662L838.946 599.408L834.23 610.388ZM858.03 620V598.184H849.678V594.368H871.098V598.184H862.71V620H858.03ZM874.307 620V594.368H891.443V598.04H878.843V605.132H890.687V608.804H878.843V616.328H891.443V620H874.307Z" fill="white"/>
<rect x="645" y="660" width="180" height="50" rx="24" fill="white"/>
<path d="M704.386 692V679.184H712.954V681.02H706.654V684.566H712.576V686.402H706.654V690.164H712.954V692H704.386ZM719.951 687.32L723.767 692H721.085L718.637 688.922L716.189 692H713.525L717.341 687.32L713.759 682.91H716.423L718.637 685.736L720.851 682.91H723.533L719.951 687.32ZM729.992 682.676C730.772 682.676 731.462 682.88 732.062 683.288C732.674 683.684 733.148 684.248 733.484 684.98C733.832 685.7 734.006 686.528 734.006 687.464C734.006 688.4 733.838 689.222 733.502 689.93C733.166 690.638 732.692 691.184 732.08 691.568C731.48 691.952 730.784 692.144 729.992 692.144C729.332 692.144 728.744 692.006 728.228 691.73C727.712 691.442 727.316 691.046 727.04 690.542V695.888H724.808V685.484C724.808 684.524 724.76 683.666 724.664 682.91H726.77L726.95 684.476C727.19 683.912 727.58 683.474 728.12 683.162C728.66 682.838 729.284 682.676 729.992 682.676ZM729.38 690.38C730.136 690.38 730.718 690.128 731.126 689.624C731.534 689.12 731.738 688.4 731.738 687.464C731.738 686.516 731.534 685.778 731.126 685.25C730.718 684.71 730.142 684.44 729.398 684.44C728.63 684.44 728.042 684.698 727.634 685.214C727.226 685.73 727.022 686.468 727.022 687.428C727.022 688.376 727.226 689.108 727.634 689.624C728.042 690.128 728.624 690.38 729.38 690.38ZM735.97 692V678.752H738.202V692H735.97ZM744.785 692.144C743.861 692.144 743.045 691.952 742.337 691.568C741.641 691.184 741.101 690.638 740.717 689.93C740.345 689.21 740.159 688.37 740.159 687.41C740.159 686.45 740.345 685.616 740.717 684.908C741.101 684.188 741.641 683.636 742.337 683.252C743.045 682.868 743.861 682.676 744.785 682.676C745.697 682.676 746.501 682.868 747.197 683.252C747.893 683.636 748.427 684.188 748.799 684.908C749.183 685.616 749.375 686.45 749.375 687.41C749.375 688.37 749.183 689.21 748.799 689.93C748.427 690.638 747.893 691.184 747.197 691.568C746.501 691.952 745.697 692.144 744.785 692.144ZM744.767 690.38C745.535 690.38 746.117 690.134 746.513 689.642C746.921 689.138 747.125 688.394 747.125 687.41C747.125 686.438 746.921 685.7 746.513 685.196C746.105 684.68 745.529 684.422 744.785 684.422C744.029 684.422 743.447 684.68 743.039 685.196C742.631 685.7 742.427 686.438 742.427 687.41C742.427 688.394 742.625 689.138 743.021 689.642C743.429 690.134 744.011 690.38 744.767 690.38ZM756.212 682.694C756.56 682.694 756.86 682.742 757.112 682.838L757.094 684.89C756.71 684.734 756.314 684.656 755.906 684.656C755.138 684.656 754.55 684.878 754.142 685.322C753.746 685.766 753.548 686.354 753.548 687.086V692H751.316V685.484C751.316 684.524 751.268 683.666 751.172 682.91H753.278L753.458 684.512C753.686 683.924 754.046 683.474 754.538 683.162C755.03 682.85 755.588 682.694 756.212 682.694ZM766.145 687.572H759.881C759.929 688.544 760.169 689.264 760.601 689.732C761.045 690.188 761.699 690.416 762.563 690.416C763.559 690.416 764.483 690.092 765.335 689.444L765.983 690.992C765.551 691.34 765.017 691.622 764.381 691.838C763.757 692.042 763.121 692.144 762.473 692.144C760.985 692.144 759.815 691.724 758.963 690.884C758.111 690.044 757.685 688.892 757.685 687.428C757.685 686.504 757.871 685.682 758.243 684.962C758.615 684.242 759.137 683.684 759.809 683.288C760.481 682.88 761.243 682.676 762.095 682.676C763.343 682.676 764.327 683.084 765.047 683.9C765.779 684.704 766.145 685.814 766.145 687.23V687.572ZM762.149 684.296C761.549 684.296 761.057 684.476 760.673 684.836C760.301 685.184 760.061 685.694 759.953 686.366H764.183C764.111 685.682 763.901 685.166 763.553 684.818C763.217 684.47 762.749 684.296 762.149 684.296Z" fill="black"/>
<rect x="1328" y="87" width="50" height="5" rx="2.5" fill="white"/>
<rect x="1343" y="102" width="35" height="5" rx="2.5" fill="white"/>
<path d="M85.1 73C86.18 73 87.06 73.32 87.74 73.96C88.42 74.6 88.76 75.44 88.76 76.48C88.76 77.52 88.42 78.36 87.74 79C87.06 79.6 86.18 79.9 85.1 79.9H75.68V111.34C75.68 112.38 75.3 113.26 74.54 113.98C73.78 114.66 72.84 115 71.72 115C70.6 115 69.68 114.66 68.96 113.98C68.24 113.26 67.88 112.38 67.88 111.34V79.9H58.46C57.38 79.9 56.5 79.58 55.82 78.94C55.14 78.3 54.8 77.46 54.8 76.42C54.8 75.42 55.14 74.6 55.82 73.96C56.54 73.32 57.42 73 58.46 73H85.1ZM107.564 82.3C108.764 82.3 109.764 82.64 110.564 83.32C111.404 84 111.824 84.8 111.824 85.72C111.824 86.96 111.504 87.9 110.864 88.54C110.224 89.14 109.464 89.44 108.584 89.44C107.984 89.44 107.304 89.3 106.544 89.02C106.424 88.98 106.144 88.9 105.704 88.78C105.304 88.66 104.864 88.6 104.384 88.6C103.344 88.6 102.344 88.92 101.384 89.56C100.424 90.2 99.6244 91.18 98.9844 92.5C98.3844 93.78 98.0844 95.32 98.0844 97.12V111.34C98.0844 112.38 97.7444 113.26 97.0644 113.98C96.3844 114.66 95.5244 115 94.4844 115C93.4444 115 92.5844 114.66 91.9044 113.98C91.2244 113.26 90.8844 112.38 90.8844 111.34V86.56C90.8844 85.52 91.2244 84.66 91.9044 83.98C92.5844 83.26 93.4444 82.9 94.4844 82.9C95.5244 82.9 96.3844 83.26 97.0644 83.98C97.7444 84.66 98.0844 85.52 98.0844 86.56V87.34C99.0044 85.7 100.324 84.46 102.044 83.62C103.764 82.74 105.604 82.3 107.564 82.3ZM142.177 82.3C143.217 82.3 144.077 82.64 144.757 83.32C145.437 84 145.777 84.88 145.777 85.96V111.34C145.777 112.38 145.437 113.26 144.757 113.98C144.077 114.66 143.217 115 142.177 115C141.137 115 140.277 114.66 139.597 113.98C138.957 113.3 138.617 112.44 138.577 111.4C137.577 112.56 136.217 113.56 134.497 114.4C132.817 115.2 131.037 115.6 129.157 115.6C126.397 115.6 123.897 114.9 121.657 113.5C119.417 112.06 117.637 110.08 116.317 107.56C115.037 105.04 114.397 102.18 114.397 98.98C114.397 95.78 115.037 92.92 116.317 90.4C117.597 87.84 119.337 85.86 121.537 84.46C123.777 83.02 126.237 82.3 128.917 82.3C130.837 82.3 132.637 82.66 134.317 83.38C135.997 84.06 137.417 84.94 138.577 86.02V85.96C138.577 84.92 138.917 84.06 139.597 83.38C140.277 82.66 141.137 82.3 142.177 82.3ZM130.057 109C132.657 109 134.777 108.06 136.417 106.18C138.057 104.26 138.877 101.86 138.877 98.98C138.877 96.1 138.057 93.7 136.417 91.78C134.777 89.86 132.657 88.9 130.057 88.9C127.497 88.9 125.397 89.86 123.757 91.78C122.117 93.7 121.297 96.1 121.297 98.98C121.297 101.86 122.097 104.26 123.697 106.18C125.337 108.06 127.457 109 130.057 109ZM177.537 82.96C178.497 82.96 179.297 83.28 179.937 83.92C180.577 84.52 180.897 85.28 180.897 86.2C180.897 86.68 180.737 87.28 180.417 88L169.197 112.72C168.917 113.4 168.497 113.94 167.937 114.34C167.417 114.74 166.817 114.96 166.137 115L165.597 115.06C164.917 115.06 164.277 114.86 163.677 114.46C163.117 114.02 162.677 113.44 162.357 112.72L151.197 88C150.917 87.36 150.777 86.72 150.777 86.08C150.777 85.28 151.117 84.56 151.797 83.92C152.477 83.24 153.317 82.9 154.317 82.9C155.077 82.9 155.777 83.1 156.417 83.5C157.057 83.9 157.537 84.46 157.857 85.18L166.137 104.14L174.357 85.24C174.677 84.48 175.117 83.9 175.677 83.5C176.237 83.1 176.857 82.92 177.537 82.96ZM215.075 98.2C215.035 99.16 214.655 99.94 213.935 100.54C213.215 101.14 212.375 101.44 211.415 101.44H191.615C192.095 103.8 193.195 105.66 194.915 107.02C196.635 108.34 198.575 109 200.735 109C202.375 109 203.655 108.86 204.575 108.58C205.495 108.26 206.215 107.94 206.735 107.62C207.295 107.26 207.675 107.02 207.875 106.9C208.595 106.54 209.275 106.36 209.915 106.36C210.755 106.36 211.475 106.66 212.075 107.26C212.675 107.86 212.975 108.56 212.975 109.36C212.975 110.44 212.415 111.42 211.295 112.3C210.175 113.22 208.675 114 206.795 114.64C204.915 115.28 203.015 115.6 201.095 115.6C197.735 115.6 194.795 114.9 192.275 113.5C189.795 112.1 187.875 110.18 186.515 107.74C185.155 105.26 184.475 102.48 184.475 99.4C184.475 95.96 185.195 92.94 186.635 90.34C188.075 87.74 189.975 85.76 192.335 84.4C194.695 83 197.215 82.3 199.895 82.3C202.535 82.3 205.015 83.02 207.335 84.46C209.695 85.9 211.575 87.84 212.975 90.28C214.375 92.72 215.075 95.36 215.075 98.2ZM199.895 88.9C195.255 88.9 192.515 91.08 191.675 95.44H207.395V95.02C207.235 93.34 206.415 91.9 204.935 90.7C203.455 89.5 201.775 88.9 199.895 88.9ZM228.88 111.34C228.88 112.38 228.52 113.26 227.8 113.98C227.12 114.66 226.26 115 225.22 115C224.22 115 223.38 114.66 222.7 113.98C222.02 113.26 221.68 112.38 221.68 111.34V74.26C221.68 73.22 222.02 72.36 222.7 71.68C223.42 70.96 224.3 70.6 225.34 70.6C226.34 70.6 227.18 70.96 227.86 71.68C228.54 72.36 228.88 73.22 228.88 74.26V111.34Z" fill="white"/>
<path d="M892.656 88.912H895.728V106H892.656V98.584H883.896V106H880.848V88.912H883.896V96.064H892.656V88.912ZM904.714 106.192C903.482 106.192 902.394 105.936 901.45 105.424C900.522 104.912 899.802 104.184 899.29 103.24C898.794 102.28 898.546 101.16 898.546 99.88C898.546 98.6 898.794 97.488 899.29 96.544C899.802 95.584 900.522 94.848 901.45 94.336C902.394 93.824 903.482 93.568 904.714 93.568C905.93 93.568 907.002 93.824 907.93 94.336C908.858 94.848 909.57 95.584 910.066 96.544C910.578 97.488 910.834 98.6 910.834 99.88C910.834 101.16 910.578 102.28 910.066 103.24C909.57 104.184 908.858 104.912 907.93 105.424C907.002 105.936 905.93 106.192 904.714 106.192ZM904.69 103.84C905.714 103.84 906.49 103.512 907.018 102.856C907.562 102.184 907.834 101.192 907.834 99.88C907.834 98.584 907.562 97.6 907.018 96.928C906.474 96.24 905.706 95.896 904.714 95.896C903.706 95.896 902.93 96.24 902.386 96.928C901.842 97.6 901.57 98.584 901.57 99.88C901.57 101.192 901.834 102.184 902.362 102.856C902.906 103.512 903.682 103.84 904.69 103.84ZM927.725 93.568C929.101 93.568 930.125 93.984 930.797 94.816C931.469 95.632 931.805 96.88 931.805 98.56V106H928.805V98.656C928.805 97.696 928.645 97.008 928.325 96.592C928.021 96.16 927.509 95.944 926.789 95.944C925.957 95.944 925.301 96.24 924.821 96.832C924.357 97.408 924.125 98.208 924.125 99.232V106H921.125V98.656C921.125 97.712 920.957 97.024 920.621 96.592C920.301 96.16 919.789 95.944 919.085 95.944C918.253 95.944 917.597 96.24 917.117 96.832C916.637 97.408 916.397 98.208 916.397 99.232V106H913.421V97.312C913.421 96.032 913.357 94.888 913.229 93.88H916.037L916.253 95.8C916.605 95.08 917.109 94.528 917.765 94.144C918.437 93.76 919.205 93.568 920.069 93.568C921.925 93.568 923.133 94.336 923.693 95.872C924.077 95.152 924.621 94.592 925.325 94.192C926.045 93.776 926.845 93.568 927.725 93.568ZM945.615 100.096H937.263C937.327 101.392 937.647 102.352 938.223 102.976C938.815 103.584 939.687 103.888 940.839 103.888C942.167 103.888 943.399 103.456 944.535 102.592L945.399 104.656C944.823 105.12 944.111 105.496 943.263 105.784C942.431 106.056 941.583 106.192 940.719 106.192C938.735 106.192 937.175 105.632 936.039 104.512C934.903 103.392 934.335 101.856 934.335 99.904C934.335 98.672 934.583 97.576 935.079 96.616C935.575 95.656 936.271 94.912 937.167 94.384C938.063 93.84 939.079 93.568 940.215 93.568C941.879 93.568 943.191 94.112 944.151 95.2C945.127 96.272 945.615 97.752 945.615 99.64V100.096ZM940.287 95.728C939.487 95.728 938.831 95.968 938.319 96.448C937.823 96.912 937.503 97.592 937.359 98.488H942.999C942.903 97.576 942.623 96.888 942.159 96.424C941.711 95.96 941.087 95.728 940.287 95.728Z" fill="white"/>
<path d="M1033.9 106L1032.2 101.992H1023.85L1022.12 106H1019L1026.73 88.912H1029.25L1037 106H1033.9ZM1024.88 99.592H1031.17L1028.02 92.272L1024.88 99.592ZM1045.54 93.568C1046.6 93.568 1047.53 93.832 1048.33 94.36C1049.14 94.872 1049.78 95.6 1050.22 96.544C1050.67 97.488 1050.9 98.584 1050.9 99.832C1050.9 101.08 1050.66 102.192 1050.2 103.168C1049.75 104.128 1049.12 104.872 1048.3 105.4C1047.5 105.928 1046.58 106.192 1045.54 106.192C1044.65 106.192 1043.85 106 1043.14 105.616C1042.46 105.232 1041.94 104.696 1041.58 104.008V106H1038.63V88.336H1041.61V95.704C1041.98 95.032 1042.5 94.512 1043.19 94.144C1043.88 93.76 1044.66 93.568 1045.54 93.568ZM1044.75 103.84C1045.74 103.84 1046.51 103.488 1047.06 102.784C1047.6 102.08 1047.87 101.096 1047.87 99.832C1047.87 98.584 1047.6 97.624 1047.06 96.952C1046.51 96.264 1045.74 95.92 1044.73 95.92C1043.72 95.92 1042.94 96.264 1042.4 96.952C1041.86 97.64 1041.58 98.616 1041.58 99.88C1041.58 101.16 1041.86 102.144 1042.4 102.832C1042.94 103.504 1043.73 103.84 1044.75 103.84ZM1059.01 106.192C1057.78 106.192 1056.69 105.936 1055.75 105.424C1054.82 104.912 1054.1 104.184 1053.59 103.24C1053.09 102.28 1052.84 101.16 1052.84 99.88C1052.84 98.6 1053.09 97.488 1053.59 96.544C1054.1 95.584 1054.82 94.848 1055.75 94.336C1056.69 93.824 1057.78 93.568 1059.01 93.568C1060.23 93.568 1061.3 93.824 1062.23 94.336C1063.15 94.848 1063.87 95.584 1064.36 96.544C1064.87 97.488 1065.13 98.6 1065.13 99.88C1065.13 101.16 1064.87 102.28 1064.36 103.24C1063.87 104.184 1063.15 104.912 1062.23 105.424C1061.3 105.936 1060.23 106.192 1059.01 106.192ZM1058.99 103.84C1060.01 103.84 1060.79 103.512 1061.31 102.856C1061.86 102.184 1062.13 101.192 1062.13 99.88C1062.13 98.584 1061.86 97.6 1061.31 96.928C1060.77 96.24 1060 95.896 1059.01 95.896C1058 95.896 1057.23 96.24 1056.68 96.928C1056.14 97.6 1055.87 98.584 1055.87 99.88C1055.87 101.192 1056.13 102.184 1056.66 102.856C1057.2 103.512 1057.98 103.84 1058.99 103.84ZM1078.76 93.88V106H1075.83V104.128C1075.45 104.8 1074.93 105.312 1074.29 105.664C1073.65 106.016 1072.92 106.192 1072.09 106.192C1069.13 106.192 1067.65 104.528 1067.65 101.2V93.88H1070.62V101.224C1070.62 102.104 1070.8 102.752 1071.15 103.168C1071.52 103.584 1072.08 103.792 1072.83 103.792C1073.71 103.792 1074.41 103.504 1074.94 102.928C1075.47 102.352 1075.73 101.584 1075.73 100.624V93.88H1078.76ZM1085.83 96.136V101.56C1085.83 102.984 1086.49 103.696 1087.82 103.696C1088.19 103.696 1088.59 103.632 1089.02 103.504V105.88C1088.49 106.072 1087.85 106.168 1087.1 106.168C1085.73 106.168 1084.67 105.784 1083.93 105.016C1083.2 104.248 1082.83 103.144 1082.83 101.704V96.136H1080.5V93.88H1082.83V90.928L1085.83 89.92V93.88H1089.05V96.136H1085.83Z" fill="white"/>
<path d="M1171.6 106.216C1169.92 106.216 1168.45 105.856 1167.18 105.136C1165.94 104.416 1164.98 103.4 1164.3 102.088C1163.63 100.76 1163.3 99.208 1163.3 97.432C1163.3 95.672 1163.63 94.136 1164.3 92.824C1164.98 91.496 1165.94 90.48 1167.18 89.776C1168.45 89.056 1169.92 88.696 1171.6 88.696C1172.75 88.696 1173.83 88.88 1174.84 89.248C1175.86 89.6 1176.71 90.096 1177.38 90.736L1176.38 92.992C1175.61 92.368 1174.84 91.92 1174.07 91.648C1173.32 91.36 1172.51 91.216 1171.65 91.216C1170 91.216 1168.72 91.752 1167.81 92.824C1166.91 93.896 1166.46 95.432 1166.46 97.432C1166.46 99.448 1166.91 101 1167.81 102.088C1168.7 103.16 1169.98 103.696 1171.65 103.696C1172.51 103.696 1173.32 103.56 1174.07 103.288C1174.84 103 1175.61 102.544 1176.38 101.92L1177.38 104.176C1176.71 104.816 1175.86 105.32 1174.84 105.688C1173.83 106.04 1172.75 106.216 1171.6 106.216ZM1185.32 106.192C1184.09 106.192 1183 105.936 1182.06 105.424C1181.13 104.912 1180.41 104.184 1179.9 103.24C1179.4 102.28 1179.16 101.16 1179.16 99.88C1179.16 98.6 1179.4 97.488 1179.9 96.544C1180.41 95.584 1181.13 94.848 1182.06 94.336C1183 93.824 1184.09 93.568 1185.32 93.568C1186.54 93.568 1187.61 93.824 1188.54 94.336C1189.47 94.848 1190.18 95.584 1190.68 96.544C1191.19 97.488 1191.44 98.6 1191.44 99.88C1191.44 101.16 1191.19 102.28 1190.68 103.24C1190.18 104.184 1189.47 104.912 1188.54 105.424C1187.61 105.936 1186.54 106.192 1185.32 106.192ZM1185.3 103.84C1186.32 103.84 1187.1 103.512 1187.63 102.856C1188.17 102.184 1188.44 101.192 1188.44 99.88C1188.44 98.584 1188.17 97.6 1187.63 96.928C1187.08 96.24 1186.32 95.896 1185.32 95.896C1184.32 95.896 1183.54 96.24 1183 96.928C1182.45 97.6 1182.18 98.584 1182.18 99.88C1182.18 101.192 1182.44 102.184 1182.97 102.856C1183.52 103.512 1184.29 103.84 1185.3 103.84ZM1200.97 93.568C1203.86 93.568 1205.31 95.232 1205.31 98.56V106H1202.31V98.704C1202.31 97.744 1202.13 97.048 1201.76 96.616C1201.39 96.168 1200.82 95.944 1200.05 95.944C1199.14 95.944 1198.41 96.24 1197.85 96.832C1197.29 97.408 1197.01 98.176 1197.01 99.136V106H1194.03V97.312C1194.03 96.032 1193.97 94.888 1193.84 93.88H1196.65L1196.86 95.872C1197.28 95.136 1197.84 94.568 1198.54 94.168C1199.26 93.768 1200.07 93.568 1200.97 93.568ZM1212.31 96.136V101.56C1212.31 102.984 1212.97 103.696 1214.3 103.696C1214.67 103.696 1215.07 103.632 1215.5 103.504V105.88C1214.97 106.072 1214.33 106.168 1213.58 106.168C1212.2 106.168 1211.15 105.784 1210.41 105.016C1209.68 104.248 1209.31 103.144 1209.31 101.704V96.136H1206.98V93.88H1209.31V90.928L1212.31 89.92V93.88H1215.52V96.136H1212.31ZM1229.18 93.88V106H1226.23V104.056C1225.86 104.728 1225.33 105.256 1224.64 105.64C1223.95 106.008 1223.17 106.192 1222.29 106.192C1221.23 106.192 1220.3 105.936 1219.48 105.424C1218.67 104.912 1218.03 104.184 1217.59 103.24C1217.14 102.296 1216.91 101.2 1216.91 99.952C1216.91 98.704 1217.14 97.6 1217.59 96.64C1218.05 95.664 1218.69 94.912 1219.51 94.384C1220.32 93.84 1221.25 93.568 1222.29 93.568C1223.17 93.568 1223.95 93.76 1224.64 94.144C1225.33 94.512 1225.86 95.032 1226.23 95.704V93.88H1229.18ZM1223.11 103.84C1224.1 103.84 1224.87 103.496 1225.41 102.808C1225.95 102.12 1226.23 101.152 1226.23 99.904C1226.23 98.624 1225.95 97.64 1225.41 96.952C1224.87 96.264 1224.09 95.92 1223.08 95.92C1222.09 95.92 1221.31 96.28 1220.75 97C1220.21 97.704 1219.94 98.688 1219.94 99.952C1219.94 101.2 1220.21 102.16 1220.75 102.832C1221.31 103.504 1222.1 103.84 1223.11 103.84ZM1237.94 106.192C1236.68 106.192 1235.58 105.936 1234.65 105.424C1233.72 104.912 1233.01 104.192 1232.52 103.264C1232.02 102.32 1231.77 101.216 1231.77 99.952C1231.77 98.688 1232.03 97.576 1232.54 96.616C1233.07 95.656 1233.8 94.912 1234.75 94.384C1235.71 93.84 1236.81 93.568 1238.06 93.568C1238.92 93.568 1239.76 93.704 1240.56 93.976C1241.37 94.248 1242.02 94.624 1242.5 95.104L1241.66 97.216C1241.15 96.8 1240.6 96.488 1240.03 96.28C1239.45 96.056 1238.88 95.944 1238.32 95.944C1237.24 95.944 1236.39 96.288 1235.78 96.976C1235.17 97.648 1234.87 98.624 1234.87 99.904C1234.87 101.184 1235.16 102.16 1235.76 102.832C1236.36 103.504 1237.22 103.84 1238.32 103.84C1238.88 103.84 1239.45 103.728 1240.03 103.504C1240.6 103.28 1241.15 102.96 1241.66 102.544L1242.5 104.656C1241.99 105.136 1241.32 105.512 1240.51 105.784C1239.69 106.056 1238.84 106.192 1237.94 106.192ZM1248.4 96.136V101.56C1248.4 102.984 1249.07 103.696 1250.39 103.696C1250.76 103.696 1251.16 103.632 1251.59 103.504V105.88C1251.07 106.072 1250.43 106.168 1249.67 106.168C1248.3 106.168 1247.24 105.784 1246.51 105.016C1245.77 104.248 1245.4 103.144 1245.4 101.704V96.136H1243.07V93.88H1245.4V90.928L1248.4 89.92V93.88H1251.62V96.136H1248.4Z" fill="white"/>
</g>
<defs>
<filter id="filter0_d_1_2" x="-120" y="-120" width="1680" height="1140" filterUnits="userSpaceOnUse" color-interpolation-filters="sRGB">
<feFlood flood-opacity="0" result="BackgroundImageFix"/>
<feColorMatrix in="SourceAlpha" type="matrix" values="0 0 0 0 0 0 0 0 0 0 0 0 0 0 0 0 0 0 127 0" result="hardAlpha"/>
<feOffset/>
<feGaussianBlur stdDeviation="60"/>
<feColorMatrix type="matrix" values="0 0 0 0 0 0 0 0 0 0 0 0 0 0 0 0 0 0 0.6 0"/>
<feBlend mode="normal" in2="BackgroundImageFix" result="effect1_dropShadow_1_2"/>
<feBlend mode="normal" in="SourceGraphic" in2="effect1_dropShadow_1_2" result="shape"/>
</filter>
</defs>
</svg>
